<svg width="32" height="32" viewBox="0 0 32 32" fill="none" xmlns="http://www.w3.org/2000/svg">
<path fill-rule="evenodd" clip-rule="evenodd" d="M11 17.3334C11 14.572 13.2385 12.3334 16 12.3334C18.7614 12.3334 21 14.572 21 17.3334C21 20.0948 18.7614 22.3334 16 22.3334C13.2385 22.3334 11 20.0948 11 17.3334ZM16 14.3334C14.3431 14.3334 13 15.6766 13 17.3334C13 18.9903 14.3431 20.3334 16 20.3334C17.6568 20.3334 19 18.9903 19 17.3334C19 15.6766 17.6568 14.3334 16 14.3334Z" fill="#1D2939"/>
<path fill-rule="evenodd" clip-rule="evenodd" d="M14.1548 7.66675C12.7612 7.66675 11.6315 8.79645 11.6315 10.19C11.6315 11.078 10.9499 11.8172 10.0649 11.8891L7.09208 12.1305C6.50838 12.1779 6.02835 12.6095 5.9194 13.1849C5.32108 16.3449 5.27646 19.5849 5.78755 22.7602L5.91722 23.5658C6.03968 24.3266 6.66585 24.9054 7.43393 24.9678L10.0237 25.1781C14.0013 25.5011 17.9986 25.5011 21.9762 25.1781L24.566 24.9678C25.3341 24.9054 25.9603 24.3266 26.0827 23.5658L26.2124 22.7602C26.7235 19.5849 26.6789 16.3449 26.0805 13.1849C25.9716 12.6095 25.4915 12.1779 24.9079 12.1305L21.9351 11.8891C21.05 11.8172 20.3684 11.078 20.3684 10.19C20.3684 8.79645 19.2387 7.66675 17.8451 7.66675H14.1548ZM9.63965 9.91702C9.78079 7.546 11.7483 5.66675 14.1548 5.66675H17.8451C20.2516 5.66675 22.2191 7.546 22.3603 9.91702L25.0697 10.1371C26.551 10.2574 27.7691 11.3527 28.0456 12.8129C28.687 16.2005 28.7349 19.6739 28.187 23.078L28.0573 23.8836C27.7885 25.5537 26.4139 26.8243 24.7279 26.9612L22.1381 27.1715C18.0527 27.5033 13.9472 27.5033 9.86181 27.1715L7.27203 26.9612C5.586 26.8243 4.21145 25.5537 3.94263 23.8836L3.81296 23.078C3.26505 19.6739 3.31288 16.2005 3.95431 12.8129C4.23078 11.3527 5.44896 10.2574 6.93018 10.1371L9.63965 9.91702Z" fill="#1D2939"/>
</svg>
