<svg width="16" height="18" viewBox="0 0 16 18" fill="none" xmlns="http://www.w3.org/2000/svg">
<mask id="path-1-inside-1_2894_2302" fill="white">
<path fill-rule="evenodd" clip-rule="evenodd" d="M9.87504 3.58333C9.87504 2.08756 11.0876 0.875 12.5834 0.875C14.0791 0.875 15.2917 2.08756 15.2917 3.58333C15.2917 5.0791 14.0791 6.29167 12.5834 6.29167C11.7837 6.29167 11.0649 5.94508 10.5692 5.39392L8.30476 6.62906L5.771 8.07692C5.99631 8.472 6.12504 8.9293 6.12504 9.41667C6.12504 9.66362 6.09199 9.90286 6.03006 10.1302L10.5692 12.6061C11.0649 12.0549 11.7837 11.7083 12.5834 11.7083C14.0791 11.7083 15.2917 12.9209 15.2917 14.4167C15.2917 15.9124 14.0791 17.125 12.5834 17.125C11.0876 17.125 9.87504 15.9124 9.87504 14.4167C9.87504 14.1697 9.90809 13.9305 9.97002 13.7031L5.43091 11.2272C4.93514 11.7784 4.2164 12.125 3.41671 12.125C1.92094 12.125 0.708374 10.9124 0.708374 9.41667C0.708374 7.9209 1.92094 6.70833 3.41671 6.70833C3.95894 6.70833 4.46395 6.86768 4.88748 7.1421L7.69533 5.53761L9.97002 4.29687C9.90809 4.06954 9.87504 3.83029 9.87504 3.58333ZM12.5834 2.125C11.778 2.125 11.125 2.77792 11.125 3.58333C11.125 4.38875 11.778 5.04167 12.5834 5.04167C13.3888 5.04167 14.0417 4.38875 14.0417 3.58333C14.0417 2.77792 13.3888 2.125 12.5834 2.125ZM3.41671 7.95833C2.61129 7.95833 1.95837 8.61125 1.95837 9.41667C1.95837 10.2221 2.61129 10.875 3.41671 10.875C4.22212 10.875 4.87504 10.2221 4.87504 9.41667C4.87504 8.61125 4.22212 7.95833 3.41671 7.95833ZM11.125 14.4167C11.125 13.6113 11.778 12.9583 12.5834 12.9583C13.3888 12.9583 14.0417 13.6113 14.0417 14.4167C14.0417 15.2221 13.3888 15.875 12.5834 15.875C11.778 15.875 11.125 15.2221 11.125 14.4167Z"/>
</mask>
<path d="M10.5692 5.39392L11.8108 4.27709L10.9282 3.29584L9.7695 3.92783L10.5692 5.39392ZM8.30476 6.62906L7.50508 5.16297L7.49056 5.17089L7.47621 5.17909L8.30476 6.62906ZM5.771 8.07692L4.94244 6.62696L3.49372 7.4548L4.32032 8.90423L5.771 8.07692ZM6.03006 10.1302L4.41877 9.69129L4.07198 10.9644L5.23038 11.5963L6.03006 10.1302ZM10.5692 12.6061L9.7695 14.0722L10.9282 14.7042L11.8108 13.7229L10.5692 12.6061ZM9.97002 13.7031L11.5813 14.142L11.9281 12.8689L10.7697 12.237L9.97002 13.7031ZM5.43091 11.2272L6.23059 9.76116L5.07193 9.12916L4.1893 10.1104L5.43091 11.2272ZM4.88748 7.1421L3.97937 8.54361L4.83295 9.09669L5.71603 8.59207L4.88748 7.1421ZM7.69533 5.53761L6.89565 4.07153L6.88113 4.07944L6.86678 4.08765L7.69533 5.53761ZM9.97002 4.29687L10.7697 5.76296L11.9281 5.1311L11.5813 3.85796L9.97002 4.29687ZM12.5834 -0.795C10.1653 -0.795 8.20504 1.16525 8.20504 3.58333H11.545C11.545 3.00988 12.0099 2.545 12.5834 2.545V-0.795ZM16.9617 3.58333C16.9617 1.16525 15.0015 -0.795 12.5834 -0.795V2.545C13.1568 2.545 13.6217 3.00988 13.6217 3.58333H16.9617ZM12.5834 7.96167C15.0015 7.96167 16.9617 6.00142 16.9617 3.58333H13.6217C13.6217 4.15679 13.1568 4.62167 12.5834 4.62167V7.96167ZM9.32757 6.51075C10.1267 7.39913 11.2905 7.96167 12.5834 7.96167V4.62167C12.2769 4.62167 12.0032 4.49103 11.8108 4.27709L9.32757 6.51075ZM9.10444 8.09514L11.3689 6.86L9.7695 3.92783L7.50508 5.16297L9.10444 8.09514ZM6.59955 9.52689L9.13331 8.07902L7.47621 5.17909L4.94244 6.62696L6.59955 9.52689ZM7.79504 9.41667C7.79504 8.63159 7.58692 7.89007 7.22167 7.24961L4.32032 8.90423C4.4057 9.05394 4.45504 9.22701 4.45504 9.41667H7.79504ZM7.64135 10.5691C7.74188 10.2 7.79504 9.81325 7.79504 9.41667H4.45504C4.45504 9.514 4.44209 9.60568 4.41877 9.69129L7.64135 10.5691ZM11.3689 11.14L6.82975 8.66411L5.23038 11.5963L9.7695 14.0722L11.3689 11.14ZM12.5834 10.0383C11.2905 10.0383 10.1267 10.6009 9.32757 11.4893L11.8108 13.7229C12.0032 13.509 12.2769 13.3783 12.5834 13.3783V10.0383ZM16.9617 14.4167C16.9617 11.9986 15.0015 10.0383 12.5834 10.0383V13.3783C13.1568 13.3783 13.6217 13.8432 13.6217 14.4167H16.9617ZM12.5834 18.795C15.0015 18.795 16.9617 16.8348 16.9617 14.4167H13.6217C13.6217 14.9901 13.1568 15.455 12.5834 15.455V18.795ZM8.20504 14.4167C8.20504 16.8348 10.1653 18.795 12.5834 18.795V15.455C12.0099 15.455 11.545 14.9901 11.545 14.4167H8.20504ZM8.35873 13.2642C8.2582 13.6333 8.20504 14.0201 8.20504 14.4167H11.545C11.545 14.3193 11.558 14.2276 11.5813 14.142L8.35873 13.2642ZM4.63122 12.6933L9.17034 15.1692L10.7697 12.237L6.23059 9.76116L4.63122 12.6933ZM3.41671 13.795C4.70963 13.795 5.87342 13.2325 6.67252 12.3441L4.1893 10.1104C3.99686 10.3244 3.72317 10.455 3.41671 10.455V13.795ZM-0.961626 9.41667C-0.961626 11.8348 0.998621 13.795 3.41671 13.795V10.455C2.84325 10.455 2.37837 9.99012 2.37837 9.41667H-0.961626ZM3.41671 5.03833C0.998621 5.03833 -0.961626 6.99858 -0.961626 9.41667H2.37837C2.37837 8.84321 2.84325 8.37833 3.41671 8.37833V5.03833ZM5.79558 5.74059C5.10978 5.29622 4.29081 5.03833 3.41671 5.03833V8.37833C3.62706 8.37833 3.81812 8.43914 3.97937 8.54361L5.79558 5.74059ZM6.86678 4.08765L4.05892 5.69213L5.71603 8.59207L8.52388 6.98758L6.86678 4.08765ZM9.17034 2.83079L6.89565 4.07153L8.49501 7.0037L10.7697 5.76296L9.17034 2.83079ZM8.20504 3.58333C8.20504 3.97992 8.2582 4.36672 8.35873 4.73578L11.5813 3.85796C11.558 3.77235 11.545 3.68067 11.545 3.58333H8.20504ZM12.795 3.58333C12.795 3.70023 12.7003 3.795 12.5834 3.795V0.455C10.8556 0.455 9.45504 1.8556 9.45504 3.58333H12.795ZM12.5834 3.37167C12.7003 3.37167 12.795 3.46643 12.795 3.58333H9.45504C9.45504 5.31106 10.8556 6.71167 12.5834 6.71167V3.37167ZM12.3717 3.58333C12.3717 3.46643 12.4665 3.37167 12.5834 3.37167V6.71167C14.3111 6.71167 15.7117 5.31106 15.7117 3.58333H12.3717ZM12.5834 3.795C12.4665 3.795 12.3717 3.70023 12.3717 3.58333H15.7117C15.7117 1.8556 14.3111 0.455 12.5834 0.455V3.795ZM3.62837 9.41667C3.62837 9.53357 3.53361 9.62833 3.41671 9.62833V6.28833C1.68898 6.28833 0.288374 7.68894 0.288374 9.41667H3.62837ZM3.41671 9.205C3.53361 9.205 3.62837 9.29977 3.62837 9.41667H0.288374C0.288374 11.1444 1.68898 12.545 3.41671 12.545V9.205ZM3.20504 9.41667C3.20504 9.29977 3.29981 9.205 3.41671 9.205V12.545C5.14444 12.545 6.54504 11.1444 6.54504 9.41667H3.20504ZM3.41671 9.62833C3.29981 9.62833 3.20504 9.53357 3.20504 9.41667H6.54504C6.54504 7.68894 5.14444 6.28833 3.41671 6.28833V9.62833ZM12.5834 11.2883C10.8556 11.2883 9.45504 12.6889 9.45504 14.4167H12.795C12.795 14.5336 12.7003 14.6283 12.5834 14.6283V11.2883ZM15.7117 14.4167C15.7117 12.6889 14.3111 11.2883 12.5834 11.2883V14.6283C12.4665 14.6283 12.3717 14.5336 12.3717 14.4167H15.7117ZM12.5834 17.545C14.3111 17.545 15.7117 16.1444 15.7117 14.4167H12.3717C12.3717 14.2998 12.4665 14.205 12.5834 14.205V17.545ZM9.45504 14.4167C9.45504 16.1444 10.8556 17.545 12.5834 17.545V14.205C12.7003 14.205 12.795 14.2998 12.795 14.4167H9.45504Z" fill="#344054" mask="url(#path-1-inside-1_2894_2302)"/>
</svg>
