<svg width="32" height="32" viewBox="0 0 32 32" fill="none" xmlns="http://www.w3.org/2000/svg">
<path d="M29.3327 25.3333V29.3333H2.66602V25.3333C2.66602 24.6 3.26602 24 3.99935 24H27.9993C28.7327 24 29.3327 24.6 29.3327 25.3333Z" fill="#292D32" stroke="#292D32" stroke-width="1.5" stroke-miterlimit="10" stroke-linecap="round" stroke-linejoin="round"/>
<path d="M9.33268 14.667H6.66602V24.0003H9.33268V14.667Z" fill="#292D32"/>
<path d="M14.6667 14.667H12V24.0003H14.6667V14.667Z" fill="#292D32"/>
<path d="M20.0007 14.667H17.334V24.0003H20.0007V14.667Z" fill="#292D32"/>
<path d="M25.3327 14.667H22.666V24.0003H25.3327V14.667Z" fill="#292D32"/>
<path d="M30.6673 30.333H1.33398C0.787318 30.333 0.333984 29.8797 0.333984 29.333C0.333984 28.7863 0.787318 28.333 1.33398 28.333H30.6673C31.214 28.333 31.6673 28.7863 31.6673 29.333C31.6673 29.8797 31.214 30.333 30.6673 30.333Z" fill="#292D32"/>
<path d="M28.4927 7.66711L16.4927 2.86711C16.226 2.76044 15.7727 2.76044 15.506 2.86711L3.50602 7.66711C3.03935 7.85378 2.66602 8.40044 2.66602 8.90711V13.3338C2.66602 14.0671 3.26602 14.6671 3.99935 14.6671H27.9993C28.7327 14.6671 29.3327 14.0671 29.3327 13.3338V8.90711C29.3327 8.40044 28.9593 7.85378 28.4927 7.66711ZM15.9993 11.3338C14.8927 11.3338 13.9993 10.4404 13.9993 9.33378C13.9993 8.22711 14.8927 7.33378 15.9993 7.33378C17.106 7.33378 17.9993 8.22711 17.9993 9.33378C17.9993 10.4404 17.106 11.3338 15.9993 11.3338Z" fill="#292D32"/>
</svg>
