<svg width="32" height="32" viewBox="0 0 32 32" fill="none" xmlns="http://www.w3.org/2000/svg">
<path d="M29.3327 10.0665C29.3327 10.9465 28.6127 11.6665 27.7327 11.6665H4.26602C3.38602 11.6665 2.66602 10.9465 2.66602 10.0665V10.0532C2.66602 6.99987 5.13268 4.5332 8.18602 4.5332H23.7993C26.8527 4.5332 29.3327 7.0132 29.3327 10.0665Z" fill="#292D32"/>
<path d="M2.66602 15.267V21.947C2.66602 25.0003 5.13268 27.467 8.18602 27.467H23.7993C26.8527 27.467 29.3327 24.987 29.3327 21.9337V15.267C29.3327 14.387 28.6127 13.667 27.7327 13.667H4.26602C3.38602 13.667 2.66602 14.387 2.66602 15.267ZM10.666 23.0003H7.99935C7.45268 23.0003 6.99935 22.547 6.99935 22.0003C6.99935 21.4537 7.45268 21.0003 7.99935 21.0003H10.666C11.2127 21.0003 11.666 21.4537 11.666 22.0003C11.666 22.547 11.2127 23.0003 10.666 23.0003ZM19.3327 23.0003H13.9993C13.4527 23.0003 12.9993 22.547 12.9993 22.0003C12.9993 21.4537 13.4527 21.0003 13.9993 21.0003H19.3327C19.8793 21.0003 20.3327 21.4537 20.3327 22.0003C20.3327 22.547 19.8793 23.0003 19.3327 23.0003Z" fill="#292D32"/>
</svg>
