<svg width="15" height="16" viewBox="0 0 15 16" fill="none" xmlns="http://www.w3.org/2000/svg">
<path d="M10.1728 0.916992C10.2833 0.916992 10.3893 0.960891 10.4674 1.03903L12.8245 3.39605C12.9872 3.55877 12.9872 3.82259 12.8245 3.98531L5.16414 11.6456C5.1118 11.698 5.04645 11.7354 4.97482 11.7541L1.78446 12.5875C1.64134 12.6249 1.48913 12.5836 1.38453 12.479C1.27993 12.3744 1.23864 12.2222 1.27602 12.079L2.10935 8.88868C2.12806 8.81705 2.16552 8.7517 2.21786 8.69935L9.87819 1.03903C9.95633 0.960891 10.0623 0.916992 10.1728 0.916992Z" fill="#D2120F"/>
<path d="M1.33398 14.042C0.988806 14.042 0.708984 14.3218 0.708984 14.667C0.708984 15.0122 0.988806 15.292 1.33398 15.292H13.834C14.1792 15.292 14.459 15.0122 14.459 14.667C14.459 14.3218 14.1792 14.042 13.834 14.042H1.33398Z" fill="#D2120F"/>
</svg>
