<svg width="32" height="28" viewBox="0 0 32 28" fill="none" xmlns="http://www.w3.org/2000/svg">
<path d="M23.1404 18.454C18.1359 23.4394 11.9767 25.3705 9.38342 22.7673C6.79011 20.1641 8.74473 14.0123 13.7492 9.02687C18.7536 4.04147 24.9128 2.11033 27.5062 4.71355C30.0995 7.31677 28.1448 13.4686 23.1404 18.454ZM14.4767 9.7572C10.2477 13.9701 8.59593 19.1688 10.7874 21.3686C12.9789 23.5685 18.1838 21.9366 22.4128 17.7236C26.6419 13.5107 28.2936 8.31207 26.1022 6.11221C23.9107 3.91234 18.7058 5.54426 14.4767 9.7572Z" fill="#292D32"/>
<path d="M9.06078 18.454C14.0652 23.4394 20.2244 25.3705 22.8177 22.7673C25.4111 20.1641 23.4564 14.0123 18.452 9.02687C13.4475 4.04147 7.28833 2.11033 4.69502 4.71355C2.10171 7.31677 4.05633 13.4686 9.06078 18.454ZM17.7244 9.7572C21.9535 13.9701 23.6052 19.1688 21.4137 21.3686C19.2223 23.5685 14.0174 21.9366 9.78833 17.7236C5.55929 13.5107 3.90753 8.31207 6.09902 6.11221C8.29052 3.91234 13.4954 5.54426 17.7244 9.7572Z" fill="#292D32"/>
</svg>
